<?xml version="1.0" encoding="UTF-8" standalone="no"?>
<svg
   xmlns:dc="http://purl.org/dc/elements/1.1/"
   xmlns:cc="http://creativecommons.org/ns#"
   xmlns:rdf="http://www.w3.org/1999/02/22-rdf-syntax-ns#"
   xmlns:svg="http://www.w3.org/2000/svg"
   xmlns="http://www.w3.org/2000/svg"
   xmlns:sodipodi="http://sodipodi.sourceforge.net/DTD/sodipodi-0.dtd"
   xmlns:inkscape="http://www.inkscape.org/namespaces/inkscape"
   width="195.90033mm"
   height="14.400448mm"
   viewBox="0 0 2313.7835 170.08403"
   version="1.2"
   id="svg2"
   inkscape:version="0.91 r13725"
   sodipodi:docname="C#symmetricalscale.svg">
  <metadata
     id="metadata156">
    <rdf:RDF>
      <cc:Work
         rdf:about="">
        <dc:format>image/svg+xml</dc:format>
        <dc:type
           rdf:resource="http://purl.org/dc/dcmitype/StillImage" />
        <dc:title>symmetricalscaleblog1</dc:title>
      </cc:Work>
    </rdf:RDF>
  </metadata>
  <sodipodi:namedview
     pagecolor="#ffffff"
     bordercolor="#666666"
     borderopacity="1"
     objecttolerance="10"
     gridtolerance="10"
     guidetolerance="10"
     inkscape:pageopacity="0"
     inkscape:pageshadow="2"
     inkscape:window-width="640"
     inkscape:window-height="480"
     id="namedview154"
     showgrid="false"
     fit-margin-top="0"
     fit-margin-left="0"
     fit-margin-right="0"
     fit-margin-bottom="0"
     inkscape:zoom="0.23838384"
     inkscape:cx="347.06699"
     inkscape:cy="-375.19198"
     inkscape:window-x="20"
     inkscape:window-y="43"
     inkscape:window-maximized="0"
     inkscape:current-layer="svg2" />
  <title
     id="title4">symmetricalscaleblog1</title>
  <desc
     id="desc6">Generated by MuseScore 2.0.2</desc>
  <defs
     id="defs8" />
  <g
     id="g10"
     style="fill:none;fill-rule:evenodd;stroke:#000000;stroke-width:1;stroke-linecap:square;stroke-linejoin:bevel"
     transform="translate(-118.11,-229.27601)">
    <g
       transform="matrix(4.16667,0,0,4.16667,118.11,263.944)"
       font-size="54.1667"
       font-weight="400"
       font-style="normal"
       id="g12"
       style="font-style:normal;font-weight:400;font-size:54.16669846px;font-family:'.SF NS Text';fill:none;stroke:#000000;stroke-width:0.40000001;stroke-linecap:butt;stroke-linejoin:bevel;stroke-opacity:1">
      <polyline
         vector-effect="none"
         points="0,0 555.307,0 "
         id="polyline14"
         style="fill:none" />
      <polyline
         vector-effect="none"
         points="0,5 555.307,5 "
         id="polyline16"
         style="fill:none" />
      <polyline
         vector-effect="none"
         points="0,10 555.307,10 "
         id="polyline18"
         style="fill:none" />
      <polyline
         vector-effect="none"
         points="0,15 555.307,15 "
         id="polyline20"
         style="fill:none" />
      <polyline
         vector-effect="none"
         points="0,20 555.307,20 "
         id="polyline22"
         style="fill:none" />
    </g>
    <g
       transform="matrix(4.16667,0,0,4.16667,2409.81,263.944)"
       font-size="54.1667"
       font-weight="400"
       font-style="normal"
       id="g24"
       style="font-style:normal;font-weight:400;font-size:54.16669846px;font-family:'.SF NS Text';fill:none;stroke:#000000;stroke-width:0.80000103;stroke-linecap:butt;stroke-linejoin:bevel;stroke-opacity:1">
      <polyline
         vector-effect="none"
         points="0.4,0 0.4,20 "
         id="polyline26"
         style="fill:none" />
    </g>
    <g
       transform="matrix(4.16667,0,0,4.16667,2409.81,263.944)"
       font-size="54.1667"
       font-weight="400"
       font-style="normal"
       id="g28"
       style="font-style:normal;font-weight:400;font-size:54.16669846px;font-family:'.SF NS Text';fill:none;stroke:#000000;stroke-width:2.5;stroke-linecap:butt;stroke-linejoin:bevel;stroke-opacity:1">
      <polyline
         vector-effect="none"
         points="4.05,0 4.05,20 "
         id="polyline30"
         style="fill:none" />
    </g>
    <g
       transform="matrix(4.16667,0,0,4.16667,615.74,357.694)"
       font-size="20"
       font-weight="400"
       font-style="normal"
       id="g32"
       style="font-style:normal;font-weight:400;font-size:20px;font-family:MScore;fill:none;stroke:#000000;stroke-width:1;stroke-linecap:square;stroke-linejoin:bevel;stroke-opacity:1" />
    <g
       transform="matrix(4.16667,0,0,4.16667,615.74,357.694)"
       font-size="20"
       font-weight="400"
       font-style="normal"
       id="g34"
       style="font-style:normal;font-weight:400;font-size:20px;font-family:MScore;fill:#000000;fill-opacity:1;stroke:none">
      <path
         vector-effect="none"
         d="m 4.31641,6.23047 c 0,0.24739 -0.1237,0.37109 -0.3711,0.37109 -0.24739,0 -0.37109,-0.1237 -0.37109,-0.37109 l 0,-2.89063 -1.66016,0.625 0,3.16407 C 1.91406,7.3763 1.79036,7.5 1.54297,7.5 1.29557,7.5 1.17188,7.3763 1.17188,7.12891 l 0,-2.91016 -0.625005,0.23437 C 0.533854,4.46615 0.481771,4.47266 0.390625,4.47266 0.286458,4.47266 0.195312,4.43359 0.117188,4.35547 0.0390625,4.27734 0,4.1862 0,4.08203 L 0,2.87109 C 0,2.67578 0.0846354,2.55208 0.253906,2.5 l 0.917974,-0.3125 0,-3.20312 -0.625005,0.214839 C 0.533854,-0.78776 0.481771,-0.78125 0.390625,-0.78125 0.286458,-0.78125 0.195312,-0.820312 0.117188,-0.898438 0.0390625,-0.976562 0,-1.06771 0,-1.17188 L 0,-2.38281 C 0,-2.5651 0.0846354,-2.68229 0.253906,-2.73438 l 0.917974,-0.35156 0,-3.14453 c 0,-0.24739 0.12369,-0.37109 0.37109,-0.37109 0.24739,0 0.37109,0.1237 0.37109,0.37109 l 0,2.89063 1.66016,-0.625 0,-3.16407 c 0,-0.24739 0.1237,-0.37109 0.37109,-0.37109 0.2474,0 0.3711,0.1237 0.3711,0.37109 l 0,2.91016 0.64453,-0.23437 c 0.01302,-0.01303 0.05859,-0.01954 0.13672,-0.01954 0.09114,0 0.1888,0.03907 0.29296,0.11719 0.07813,0.07813 0.11719,0.16927 0.11719,0.27344 l 0,1.21094 c 0,0.18229 -0.09114,0.30599 -0.27343,0.37109 l -0.91797,0.3125 0,3.20312 0.64453,-0.214839 C 4.97396,0.78776 5.01953,0.78125 5.09766,0.78125 c 0.09114,0 0.1888,0.039062 0.29296,0.117188 0.07813,0.078124 0.11719,0.169272 0.11719,0.273442 l 0,1.21093 c 0,0.16927 -0.09114,0.28646 -0.27343,0.35157 l -0.91797,0.35156 0,3.14453 m -0.74219,-8.125 -1.66016,0.58594 0,3.20312 1.66016,-0.58594 0,-3.20312"
         id="path36"
         inkscape:connector-curvature="0"
         style="fill-rule:nonzero" />
    </g>
    <g
       transform="matrix(4.16667,0,0,4.16667,615.74,357.694)"
       font-size="20"
       font-weight="400"
       font-style="normal"
       id="g38"
       style="font-style:normal;font-weight:400;font-size:20px;font-family:MScore;fill:none;stroke:#000000;stroke-width:1;stroke-linecap:square;stroke-linejoin:bevel;stroke-opacity:1" />
    <g
       transform="matrix(4.16667,0,0,4.16667,258.267,368.11)"
       font-size="20"
       font-weight="400"
       font-style="normal"
       id="g40"
       style="font-style:normal;font-weight:400;font-size:20px;font-family:MScore;fill:none;stroke:#000000;stroke-width:1;stroke-linecap:square;stroke-linejoin:bevel;stroke-opacity:1" />
    <g
       transform="matrix(4.16667,0,0,4.16667,258.267,368.11)"
       font-size="20"
       font-weight="400"
       font-style="normal"
       id="g42"
       style="font-style:normal;font-weight:400;font-size:20px;font-family:MScore;fill:#000000;fill-opacity:1;stroke:none">
      <path
         vector-effect="none"
         d="m 4.31641,6.23047 c 0,0.24739 -0.1237,0.37109 -0.3711,0.37109 -0.24739,0 -0.37109,-0.1237 -0.37109,-0.37109 l 0,-2.89063 -1.66016,0.625 0,3.16407 C 1.91406,7.3763 1.79036,7.5 1.54297,7.5 1.29557,7.5 1.17188,7.3763 1.17188,7.12891 l 0,-2.91016 -0.625005,0.23437 C 0.533854,4.46615 0.481771,4.47266 0.390625,4.47266 0.286458,4.47266 0.195312,4.43359 0.117188,4.35547 0.0390625,4.27734 0,4.1862 0,4.08203 L 0,2.87109 C 0,2.67578 0.0846354,2.55208 0.253906,2.5 l 0.917974,-0.3125 0,-3.20312 -0.625005,0.214839 C 0.533854,-0.78776 0.481771,-0.78125 0.390625,-0.78125 0.286458,-0.78125 0.195312,-0.820312 0.117188,-0.898438 0.0390625,-0.976562 0,-1.06771 0,-1.17188 L 0,-2.38281 C 0,-2.5651 0.0846354,-2.68229 0.253906,-2.73438 l 0.917974,-0.35156 0,-3.14453 c 0,-0.24739 0.12369,-0.37109 0.37109,-0.37109 0.24739,0 0.37109,0.1237 0.37109,0.37109 l 0,2.89063 1.66016,-0.625 0,-3.16407 c 0,-0.24739 0.1237,-0.37109 0.37109,-0.37109 0.2474,0 0.3711,0.1237 0.3711,0.37109 l 0,2.91016 0.64453,-0.23437 c 0.01302,-0.01303 0.05859,-0.01954 0.13672,-0.01954 0.09114,0 0.1888,0.03907 0.29296,0.11719 0.07813,0.07813 0.11719,0.16927 0.11719,0.27344 l 0,1.21094 c 0,0.18229 -0.09114,0.30599 -0.27343,0.37109 l -0.91797,0.3125 0,3.20312 0.64453,-0.214839 C 4.97396,0.78776 5.01953,0.78125 5.09766,0.78125 c 0.09114,0 0.1888,0.039062 0.29296,0.117188 0.07813,0.078124 0.11719,0.169272 0.11719,0.273442 l 0,1.21093 c 0,0.16927 -0.09114,0.28646 -0.27343,0.35157 l -0.91797,0.35156 0,3.14453 m -0.74219,-8.125 -1.66016,0.58594 0,3.20312 1.66016,-0.58594 0,-3.20312"
         id="path44"
         inkscape:connector-curvature="0"
         style="fill-rule:nonzero" />
    </g>
    <g
       transform="matrix(4.16667,0,0,4.16667,258.267,368.11)"
       font-size="20"
       font-weight="400"
       font-style="normal"
       id="g46"
       style="font-style:normal;font-weight:400;font-size:20px;font-family:MScore;fill:none;stroke:#000000;stroke-width:1;stroke-linecap:square;stroke-linejoin:bevel;stroke-opacity:1" />
    <g
       transform="matrix(4.16667,0,0,4.16667,2082.57,305.61)"
       font-size="20"
       font-weight="400"
       font-style="normal"
       id="g48"
       style="font-style:normal;font-weight:400;font-size:20px;font-family:MScore;fill:none;stroke:#000000;stroke-width:0.64999998;stroke-linecap:round;stroke-linejoin:bevel;stroke-opacity:1">
      <polyline
         vector-effect="none"
         points="0,-0.939071 0,-15 "
         id="polyline50"
         style="fill:none" />
    </g>
    <g
       transform="matrix(4.16667,0,0,4.16667,1729.27,316.027)"
       font-size="20"
       font-weight="400"
       font-style="normal"
       id="g52"
       style="font-style:normal;font-weight:400;font-size:20px;font-family:MScore;fill:none;stroke:#000000;stroke-width:0.64999998;stroke-linecap:round;stroke-linejoin:bevel;stroke-opacity:1">
      <polyline
         vector-effect="none"
         points="0,-0.939071 0,-16.25 "
         id="polyline54"
         style="fill:none" />
    </g>
    <g
       transform="matrix(4.16667,0,0,4.16667,1375.96,326.444)"
       font-size="20"
       font-weight="400"
       font-style="normal"
       id="g56"
       style="font-style:normal;font-weight:400;font-size:20px;font-family:MScore;fill:none;stroke:#000000;stroke-width:0.64999998;stroke-linecap:round;stroke-linejoin:bevel;stroke-opacity:1">
      <polyline
         vector-effect="none"
         points="0,-0.939071 0,-17.5 "
         id="polyline58"
         style="fill:none" />
    </g>
    <g
       transform="matrix(4.16667,0,0,4.16667,1022.65,336.86)"
       font-size="20"
       font-weight="400"
       font-style="normal"
       id="g60"
       style="font-style:normal;font-weight:400;font-size:20px;font-family:MScore;fill:none;stroke:#000000;stroke-width:0.64999998;stroke-linecap:round;stroke-linejoin:bevel;stroke-opacity:1">
      <polyline
         vector-effect="none"
         points="0,-0.939071 0,-18.75 "
         id="polyline62"
         style="fill:none" />
    </g>
    <g
       transform="matrix(4.16667,0,0,4.16667,669.347,357.694)"
       font-size="20"
       font-weight="400"
       font-style="normal"
       id="g64"
       style="font-style:normal;font-weight:400;font-size:20px;font-family:MScore;fill:none;stroke:#000000;stroke-width:0.64999998;stroke-linecap:round;stroke-linejoin:bevel;stroke-opacity:1">
      <polyline
         vector-effect="none"
         points="0,-0.939071 0,-22.5 "
         id="polyline66"
         style="fill:none" />
    </g>
    <g
       transform="matrix(4.16667,0,0,4.16667,316.04,368.11)"
       font-size="20"
       font-weight="400"
       font-style="normal"
       id="g68"
       style="font-style:normal;font-weight:400;font-size:20px;font-family:MScore;fill:none;stroke:#000000;stroke-width:0.64999998;stroke-linecap:round;stroke-linejoin:bevel;stroke-opacity:1">
      <polyline
         vector-effect="none"
         points="0,-0.939071 0,-23.75 "
         id="polyline70"
         style="fill:none" />
    </g>
    <g
       transform="matrix(4.16667,0,0,4.16667,283.716,368.11)"
       font-size="20"
       font-weight="400"
       font-style="normal"
       id="g72"
       style="font-style:normal;font-weight:400;font-size:20px;font-family:MScore;fill:none;stroke:#000000;stroke-width:0.80000103;stroke-linecap:square;stroke-linejoin:bevel;stroke-opacity:1">
      <polyline
         vector-effect="none"
         points="0,0 9.58282,0 "
         id="polyline74"
         style="fill:none" />
    </g>
    <g
       transform="matrix(4.16667,0,0,4.16667,2056.5,305.61)"
       font-size="20"
       font-weight="400"
       font-style="normal"
       id="g76"
       style="font-style:normal;font-weight:400;font-size:20px;font-family:MScore;fill:none;stroke:#000000;stroke-width:1;stroke-linecap:square;stroke-linejoin:bevel;stroke-opacity:1" />
    <g
       transform="matrix(4.16667,0,0,4.16667,2056.5,305.61)"
       font-size="20"
       font-weight="400"
       font-style="normal"
       id="g78"
       style="font-style:normal;font-weight:400;font-size:20px;font-family:MScore;fill:#000000;fill-opacity:1;stroke:none">
      <path
         vector-effect="none"
         d="m 4.39453,-2.75391 c 0.625,0 1.15235,0.16276 1.58203,0.48829 0.40365,0.35156 0.60547,0.79427 0.60547,1.32812 0,0.8984375 -0.46224,1.738281 -1.38672,2.51953 C 4.25781,2.36328 3.25521,2.75391 2.1875,2.75391 1.5625,2.75391 1.03516,2.59115 0.605469,2.26562 0.201823,1.91406 0,1.47135 0,0.9375 0,0.0390625 0.46875,-0.800781 1.40625,-1.58203 2.31771,-2.36328 3.3138,-2.75391 4.39453,-2.75391"
         id="path80"
         inkscape:connector-curvature="0"
         style="fill-rule:nonzero" />
    </g>
    <g
       transform="matrix(4.16667,0,0,4.16667,2056.5,305.61)"
       font-size="20"
       font-weight="400"
       font-style="normal"
       id="g82"
       style="font-style:normal;font-weight:400;font-size:20px;font-family:MScore;fill:none;stroke:#000000;stroke-width:1;stroke-linecap:square;stroke-linejoin:bevel;stroke-opacity:1" />
    <g
       transform="matrix(4.16667,0,0,4.16667,1703.19,316.027)"
       font-size="20"
       font-weight="400"
       font-style="normal"
       id="g84"
       style="font-style:normal;font-weight:400;font-size:20px;font-family:MScore;fill:none;stroke:#000000;stroke-width:1;stroke-linecap:square;stroke-linejoin:bevel;stroke-opacity:1" />
    <g
       transform="matrix(4.16667,0,0,4.16667,1703.19,316.027)"
       font-size="20"
       font-weight="400"
       font-style="normal"
       id="g86"
       style="font-style:normal;font-weight:400;font-size:20px;font-family:MScore;fill:#000000;fill-opacity:1;stroke:none">
      <path
         vector-effect="none"
         d="m 4.39453,-2.75391 c 0.625,0 1.15235,0.16276 1.58203,0.48829 0.40365,0.35156 0.60547,0.79427 0.60547,1.32812 0,0.8984375 -0.46224,1.738281 -1.38672,2.51953 C 4.25781,2.36328 3.25521,2.75391 2.1875,2.75391 1.5625,2.75391 1.03516,2.59115 0.605469,2.26562 0.201823,1.91406 0,1.47135 0,0.9375 0,0.0390625 0.46875,-0.800781 1.40625,-1.58203 2.31771,-2.36328 3.3138,-2.75391 4.39453,-2.75391"
         id="path88"
         inkscape:connector-curvature="0"
         style="fill-rule:nonzero" />
    </g>
    <g
       transform="matrix(4.16667,0,0,4.16667,1703.19,316.027)"
       font-size="20"
       font-weight="400"
       font-style="normal"
       id="g90"
       style="font-style:normal;font-weight:400;font-size:20px;font-family:MScore;fill:none;stroke:#000000;stroke-width:1;stroke-linecap:square;stroke-linejoin:bevel;stroke-opacity:1" />
    <g
       transform="matrix(4.16667,0,0,4.16667,1349.89,326.444)"
       font-size="20"
       font-weight="400"
       font-style="normal"
       id="g92"
       style="font-style:normal;font-weight:400;font-size:20px;font-family:MScore;fill:none;stroke:#000000;stroke-width:1;stroke-linecap:square;stroke-linejoin:bevel;stroke-opacity:1" />
    <g
       transform="matrix(4.16667,0,0,4.16667,1349.89,326.444)"
       font-size="20"
       font-weight="400"
       font-style="normal"
       id="g94"
       style="font-style:normal;font-weight:400;font-size:20px;font-family:MScore;fill:#000000;fill-opacity:1;stroke:none">
      <path
         vector-effect="none"
         d="m 4.39453,-2.75391 c 0.625,0 1.15235,0.16276 1.58203,0.48829 0.40365,0.35156 0.60547,0.79427 0.60547,1.32812 0,0.8984375 -0.46224,1.738281 -1.38672,2.51953 C 4.25781,2.36328 3.25521,2.75391 2.1875,2.75391 1.5625,2.75391 1.03516,2.59115 0.605469,2.26562 0.201823,1.91406 0,1.47135 0,0.9375 0,0.0390625 0.46875,-0.800781 1.40625,-1.58203 2.31771,-2.36328 3.3138,-2.75391 4.39453,-2.75391"
         id="path96"
         inkscape:connector-curvature="0"
         style="fill-rule:nonzero" />
    </g>
    <g
       transform="matrix(4.16667,0,0,4.16667,1349.89,326.444)"
       font-size="20"
       font-weight="400"
       font-style="normal"
       id="g98"
       style="font-style:normal;font-weight:400;font-size:20px;font-family:MScore;fill:none;stroke:#000000;stroke-width:1;stroke-linecap:square;stroke-linejoin:bevel;stroke-opacity:1" />
    <g
       transform="matrix(4.16667,0,0,4.16667,996.579,336.86)"
       font-size="20"
       font-weight="400"
       font-style="normal"
       id="g100"
       style="font-style:normal;font-weight:400;font-size:20px;font-family:MScore;fill:none;stroke:#000000;stroke-width:1;stroke-linecap:square;stroke-linejoin:bevel;stroke-opacity:1" />
    <g
       transform="matrix(4.16667,0,0,4.16667,996.579,336.86)"
       font-size="20"
       font-weight="400"
       font-style="normal"
       id="g102"
       style="font-style:normal;font-weight:400;font-size:20px;font-family:MScore;fill:#000000;fill-opacity:1;stroke:none">
      <path
         vector-effect="none"
         d="m 4.39453,-2.75391 c 0.625,0 1.15235,0.16276 1.58203,0.48829 0.40365,0.35156 0.60547,0.79427 0.60547,1.32812 0,0.8984375 -0.46224,1.738281 -1.38672,2.51953 C 4.25781,2.36328 3.25521,2.75391 2.1875,2.75391 1.5625,2.75391 1.03516,2.59115 0.605469,2.26562 0.201823,1.91406 0,1.47135 0,0.9375 0,0.0390625 0.46875,-0.800781 1.40625,-1.58203 2.31771,-2.36328 3.3138,-2.75391 4.39453,-2.75391"
         id="path104"
         inkscape:connector-curvature="0"
         style="fill-rule:nonzero" />
    </g>
    <g
       transform="matrix(4.16667,0,0,4.16667,996.579,336.86)"
       font-size="20"
       font-weight="400"
       font-style="normal"
       id="g106"
       style="font-style:normal;font-weight:400;font-size:20px;font-family:MScore;fill:none;stroke:#000000;stroke-width:1;stroke-linecap:square;stroke-linejoin:bevel;stroke-opacity:1" />
    <g
       transform="matrix(4.16667,0,0,4.16667,643.273,357.694)"
       font-size="20"
       font-weight="400"
       font-style="normal"
       id="g108"
       style="font-style:normal;font-weight:400;font-size:20px;font-family:MScore;fill:none;stroke:#000000;stroke-width:1;stroke-linecap:square;stroke-linejoin:bevel;stroke-opacity:1" />
    <g
       transform="matrix(4.16667,0,0,4.16667,643.273,357.694)"
       font-size="20"
       font-weight="400"
       font-style="normal"
       id="g110"
       style="font-style:normal;font-weight:400;font-size:20px;font-family:MScore;fill:#000000;fill-opacity:1;stroke:none">
      <path
         vector-effect="none"
         d="m 4.39453,-2.75391 c 0.625,0 1.15235,0.16276 1.58203,0.48829 0.40365,0.35156 0.60547,0.79427 0.60547,1.32812 0,0.8984375 -0.46224,1.738281 -1.38672,2.51953 C 4.25781,2.36328 3.25521,2.75391 2.1875,2.75391 1.5625,2.75391 1.03516,2.59115 0.605469,2.26562 0.201823,1.91406 0,1.47135 0,0.9375 0,0.0390625 0.46875,-0.800781 1.40625,-1.58203 2.31771,-2.36328 3.3138,-2.75391 4.39453,-2.75391"
         id="path112"
         inkscape:connector-curvature="0"
         style="fill-rule:nonzero" />
    </g>
    <g
       transform="matrix(4.16667,0,0,4.16667,643.273,357.694)"
       font-size="20"
       font-weight="400"
       font-style="normal"
       id="g114"
       style="font-style:normal;font-weight:400;font-size:20px;font-family:MScore;fill:none;stroke:#000000;stroke-width:1;stroke-linecap:square;stroke-linejoin:bevel;stroke-opacity:1" />
    <g
       transform="matrix(4.16667,0,0,4.16667,289.966,368.11)"
       font-size="20"
       font-weight="400"
       font-style="normal"
       id="g116"
       style="font-style:normal;font-weight:400;font-size:20px;font-family:MScore;fill:none;stroke:#000000;stroke-width:1;stroke-linecap:square;stroke-linejoin:bevel;stroke-opacity:1" />
    <g
       transform="matrix(4.16667,0,0,4.16667,289.966,368.11)"
       font-size="20"
       font-weight="400"
       font-style="normal"
       id="g118"
       style="font-style:normal;font-weight:400;font-size:20px;font-family:MScore;fill:#000000;fill-opacity:1;stroke:none">
      <path
         vector-effect="none"
         d="m 4.39453,-2.75391 c 0.625,0 1.15235,0.16276 1.58203,0.48829 0.40365,0.35156 0.60547,0.79427 0.60547,1.32812 0,0.8984375 -0.46224,1.738281 -1.38672,2.51953 C 4.25781,2.36328 3.25521,2.75391 2.1875,2.75391 1.5625,2.75391 1.03516,2.59115 0.605469,2.26562 0.201823,1.91406 0,1.47135 0,0.9375 0,0.0390625 0.46875,-0.800781 1.40625,-1.58203 2.31771,-2.36328 3.3138,-2.75391 4.39453,-2.75391"
         id="path120"
         inkscape:connector-curvature="0"
         style="fill-rule:nonzero" />
    </g>
    <g
       transform="matrix(4.16667,0,0,4.16667,289.966,368.11)"
       font-size="20"
       font-weight="400"
       font-style="normal"
       id="g122"
       style="font-style:normal;font-weight:400;font-size:20px;font-family:MScore;fill:none;stroke:#000000;stroke-width:1;stroke-linecap:square;stroke-linejoin:bevel;stroke-opacity:1" />
    <g
       transform="matrix(4.16667,0,0,4.16667,131.444,326.444)"
       font-size="20"
       font-weight="400"
       font-style="normal"
       id="g124"
       style="font-style:normal;font-weight:400;font-size:20px;font-family:MScore;fill:none;stroke:#000000;stroke-width:1;stroke-linecap:square;stroke-linejoin:bevel;stroke-opacity:1" />
    <g
       transform="matrix(4.16667,0,0,4.16667,131.444,326.444)"
       font-size="20"
       font-weight="400"
       font-style="normal"
       id="g126"
       style="font-style:normal;font-weight:400;font-size:20px;font-family:MScore;fill:#000000;fill-opacity:1;stroke:none">
      <path
         vector-effect="none"
         d="m 7.34375,-5.11719 c 0,0 0.03906,0 0.11719,0 0.05208,-0.01302 0.09765,-0.01953 0.13672,-0.01953 1.45833,0 2.65624,0.51432 3.59374,1.54297 0.9375,1.01563 1.4063,2.20052 1.4063,3.5546875 0,1.6796825 -0.6967,3.0468725 -2.0899,4.1015625 -0.3646,0.28646 -0.83983,0.52083 -1.42577,0.70312 0.06511,0.84636 0.09766,1.52995 0.09766,2.05079 0,0.10416 -0.01302,0.48177 -0.03907,1.13281 -0.05208,1.21094 -0.46874,2.25908 -1.25,3.14458 -0.7552,0.8723 -1.6927,1.3085 -2.8125,1.3085 -1.05468,0 -1.95312,-0.3711 -2.69531,-1.1132 C 1.64062,10.5339 1.26953,9.6224 1.26953,8.55469 c 0,-0.5599 0.21485,-1.03516 0.64453,-1.42578 0.44271,-0.39063 0.95703,-0.58594 1.54297,-0.58594 0.52083,0 0.95703,0.20182 1.30859,0.60547 0.36459,0.3776 0.54688,0.84635 0.54688,1.40625 0,0.50781 -0.18229,0.94401 -0.54688,1.30859 -0.36458,0.36462 -0.80078,0.54692 -1.30859,0.54692 -0.20833,0 -0.41015,-0.0391 -0.60547,-0.1172 0.57292,0.8463 1.33464,1.2695 2.28516,1.2695 0.89844,0 1.63411,-0.3646 2.20703,-1.0937 C 7.94271,9.71354 8.26823,8.83464 8.32031,7.83203 8.34635,7.20703 8.35938,6.84896 8.35938,6.75781 8.35938,6.02865 8.33333,5.42969 8.28125,4.96094 7.63021,5.0651 7.05078,5.11719 6.54297,5.11719 4.73307,5.11719 3.1901,4.40104 1.91406,2.96875 0.664062,1.52344 0.0390625,-0.195312 0.0390625,-2.1875 c 0,-0.41667 0.0390625,-0.83984 0.1171875,-1.26953 C 0.234375,-3.80859 0.332031,-4.19271 0.449219,-4.60938 0.514323,-4.84375 0.690104,-5.22135 0.976562,-5.74219 1.08073,-5.89844 1.19792,-6.09375 1.32812,-6.32812 1.45833,-6.5625 1.54948,-6.71875 1.60156,-6.79688 1.73177,-7.05729 1.98568,-7.40885 2.36328,-7.85156 2.46745,-7.96875 2.57487,-8.09896 2.68555,-8.24219 2.79622,-8.38542 2.89062,-8.5026 2.96875,-8.59375 3.04688,-8.6849 3.10547,-8.75651 3.14453,-8.80859 3.18359,-8.86068 3.47656,-9.20573 4.02344,-9.84375 4.15365,-9.97396 4.2806,-10.1139 4.4043,-10.2637 c 0.12369,-0.1497 0.22461,-0.2669 0.30273,-0.3515 0.07813,-0.0847 0.13672,-0.1465 0.17578,-0.1856 -0.46875,-1.5495 -0.76172,-2.7864 -0.8789,-3.7109 -0.09115,-0.7422 -0.13672,-1.7578 -0.13672,-3.0469 0,-1.1328 0.26041,-2.194 0.78125,-3.1836 0.50781,-1.0286 1.21745,-1.8685 2.1289,-2.5195 0.06511,-0.0391 0.13021,-0.0586 0.19532,-0.0586 0.09114,0 0.15625,0.0195 0.19531,0.0586 0.70312,0.8463 1.30859,1.9466 1.81641,3.3008 0.52083,1.3541 0.78124,2.5846 0.78124,3.6914 0,1.25 -0.29947,2.4218 -0.89843,3.5156 -0.67709,1.1588 -1.54948,2.3568 -2.61719,3.59374 0.27344,0.85938 0.63802,2.20704 1.09375,4.04297 M 9.00391,3.96484 C 9.68099,3.71745 10.2083,3.29427 10.5859,2.69531 c 0.4167,-0.57291 0.625,-1.21745 0.625,-1.933591 0,-0.924479 -0.3125,-1.744792 -0.9375,-2.460939 -0.63798,-0.74219 -1.45179,-1.15885 -2.44137,-1.25 0.5599,2.747397 0.95052,5.05208 1.17188,6.91406 m -7.5586,-4.511715 c 0,1.289063 0.52084,2.421875 1.5625,3.398435 1.06771,0.95052 2.26563,1.42578 3.59375,1.42578 0.54688,0 1.08073,-0.03906 1.60156,-0.11718 C 7.99479,2.18099 7.58464,-0.188802 6.97266,-2.94922 6.23047,-2.87109 5.63802,-2.61068 5.19531,-2.16797 4.76562,-1.71224 4.55078,-1.19792 4.55078,-0.625 c 0,0.989583 0.52734,1.79036 1.58203,2.40234 0.09115,0.09115 0.13672,0.18881 0.13672,0.29297 0,0.10417 -0.04557,0.20183 -0.13672,0.29297 C 6.05469,2.45443 5.95703,2.5 5.83984,2.5 5.82682,2.5 5.76823,2.48698 5.66406,2.46094 4.92188,2.05729 4.34896,1.53646 3.94531,0.898438 3.56771,0.221354 3.37891,-0.46224 3.37891,-1.15234 c 0,-0.89844 0.27994,-1.71224 0.83984,-2.44141 C 4.80469,-4.32292 5.56641,-4.79167 6.50391,-5 6.13932,-6.45833 5.83984,-7.59766 5.60547,-8.41797 5.39714,-8.18359 5.14648,-7.90039 4.85352,-7.56836 4.56055,-7.23633 4.38802,-7.03776 4.33594,-6.97266 3.86719,-6.36068 3.50911,-5.88542 3.26172,-5.54688 2.81901,-4.9349 2.49349,-4.40755 2.28516,-3.96484 2.0638,-3.47005 1.86849,-2.92969 1.69922,-2.34375 1.52995,-1.78385 1.44531,-1.1849 1.44531,-0.546875 M 7.96875,-20.4102 c -0.97656,0.4818 -1.74479,1.1719 -2.30469,2.0704 -0.57291,0.9244 -0.85937,1.9205 -0.85937,2.9882 0,0.9375 0.23437,2.2006 0.70312,3.7891 0.9375,-1.1328 1.64063,-2.181 2.10938,-3.1445 0.49479,-1.0157 0.74219,-2.0769 0.74219,-3.1836 0,-0.8334 -0.13021,-1.6732 -0.39063,-2.5196"
         id="path128"
         inkscape:connector-curvature="0"
         style="fill-rule:nonzero" />
    </g>
    <g
       transform="matrix(4.16667,0,0,4.16667,131.444,326.444)"
       font-size="20"
       font-weight="400"
       font-style="normal"
       id="g130"
       style="font-style:normal;font-weight:400;font-size:20px;font-family:MScore;fill:none;stroke:#000000;stroke-width:1;stroke-linecap:square;stroke-linejoin:bevel;stroke-opacity:1" />
    <g
       transform="matrix(4.16667,0,0,4.16667,204.725,263.944)"
       font-size="20"
       font-weight="400"
       font-style="normal"
       id="g132"
       style="font-style:normal;font-weight:400;font-size:20px;font-family:MScore;fill:none;stroke:#000000;stroke-width:1;stroke-linecap:square;stroke-linejoin:bevel;stroke-opacity:1" />
    <g
       transform="matrix(4.16667,0,0,4.16667,206.548,284.777)"
       font-size="20"
       font-weight="400"
       font-style="normal"
       id="g134"
       style="font-style:normal;font-weight:400;font-size:20px;font-family:MScore;fill:#000000;fill-opacity:1;stroke:none">
      <path
         vector-effect="none"
         d="m 5.25391,-0.292969 c 0,0.130209 0.07161,0.2539065 0.21484,0.371094 0.20833,0.15625 0.37109,0.273437 0.48828,0.351563 0.15625,0.091145 0.31901,0.299479 0.48828,0.625002 0.14323,0.3125 0.21485,0.69661 0.21485,1.15234 0,0.89844 -0.33204,1.58854 -0.9961,2.07031 C 4.98698,4.75911 4.1276,5 3.08594,5 2.23958,5 1.52344,4.79167 0.9375,4.375 0.3125,3.98438 0,3.4375 0,2.73438 0,2.39583 0.130208,2.08333 0.390625,1.79688 0.664062,1.54948 0.976562,1.42578 1.32812,1.42578 c 0.36459,0 0.66407,0.13021 0.89844,0.39063 0.26042,0.24739 0.39063,0.55338 0.39063,0.91797 0,0.16927 -0.13021,0.35156 -0.39063,0.54687 -0.27344,0.18229 -0.41015,0.35807 -0.41015,0.52734 0,0.2474 0.12369,0.42969 0.37109,0.54688 0.26042,0.11719 0.5599,0.17578 0.89844,0.17578 0.45573,0 0.78125,-0.22135 0.97656,-0.66406 C 4.24479,3.38542 4.33594,2.83203 4.33594,2.20703 l 0,-0.33203 C 4.33594,1.4974 4.32292,1.16536 4.29688,0.878906 4.27083,0.657552 4.17969,0.455729 4.02344,0.273438 3.88021,0.0911458 3.65234,0 3.33984,0 L 1.73828,0 C 1.55599,0 1.46484,-0.0976562 1.46484,-0.292969 c 0,-0.169271 0.09115,-0.266927 0.27344,-0.292969 l 1.60156,0 c 0.36459,0 0.625,-0.117187 0.78125,-0.351562 0.13021,-0.18229 0.20183,-0.50781 0.21485,-0.97656 l 0,-0.64453 0,-0.15625 c 0,-1.21094 -0.44271,-1.81641 -1.32813,-1.81641 -0.78125,0 -1.17838,0.21484 -1.1914,0.64453 0,0.14323 0.12369,0.29948 0.37109,0.46875 0.23438,0.16927 0.35156,0.32552 0.35156,0.46875 0,0.32552 -0.11718,0.60547 -0.35156,0.83984 -0.22135,0.22136 -0.49479,0.33204 -0.82031,0.33204 -0.3125,0 -0.57943,-0.11068 -0.800784,-0.33204 -0.221354,-0.24739 -0.332031,-0.52734 -0.332031,-0.83984 0,-0.61198 0.273437,-1.11328 0.820315,-1.5039 C 1.6276,-4.81771 2.27865,-5 3.00781,-5 c 0.97657,0 1.78386,0.1888 2.42188,0.56641 0.63802,0.36458 0.95703,0.9375 0.95703,1.71875 0,0.55989 -0.0586,0.98307 -0.17578,1.26953 -0.11719,0.29948 -0.2474,0.481768 -0.39063,0.546872 -0.15625,0.065105 -0.28646,0.14323 -0.39062,0.234376 -0.11719,0.104166 -0.17578,0.227864 -0.17578,0.371093"
         id="path136"
         inkscape:connector-curvature="0"
         style="fill-rule:nonzero" />
    </g>
    <g
       transform="matrix(4.16667,0,0,4.16667,204.725,263.944)"
       font-size="20"
       font-weight="400"
       font-style="normal"
       id="g138"
       style="font-style:normal;font-weight:400;font-size:20px;font-family:MScore;fill:none;stroke:#000000;stroke-width:1;stroke-linecap:square;stroke-linejoin:bevel;stroke-opacity:1" />
    <g
       transform="matrix(4.16667,0,0,4.16667,204.725,263.944)"
       font-size="20"
       font-weight="400"
       font-style="normal"
       id="g140"
       style="font-style:normal;font-weight:400;font-size:20px;font-family:MScore;fill:none;stroke:#000000;stroke-width:1;stroke-linecap:square;stroke-linejoin:bevel;stroke-opacity:1" />
    <g
       transform="matrix(4.16667,0,0,4.16667,204.725,326.444)"
       font-size="20"
       font-weight="400"
       font-style="normal"
       id="g142"
       style="font-style:normal;font-weight:400;font-size:20px;font-family:MScore;fill:#000000;fill-opacity:1;stroke:none">
      <path
         vector-effect="none"
         d="M 5.17578,-0.761719 C 5.82682,-1.47786 6.15234,-2.15495 6.15234,-2.79297 6.15234,-3.32682 5.92448,-3.75 5.46875,-4.0625 5.02604,-4.375 4.47917,-4.53125 3.82812,-4.53125 c -0.45572,0 -0.82031,0.14323 -1.09374,0.42969 -0.27344,0.28646 -0.41016,0.61198 -0.41016,0.97656 0,0.45573 0.20182,0.80729 0.60547,1.05469 l 2.24609,1.308591 m 0.60547,0.332031 C 6.88802,0.208333 7.44141,1.0612 7.44141,2.12891 c 0,0.79427 -0.33203,1.46484 -0.9961,2.01171 C 5.78125,4.71354 4.85026,5 3.65234,5 2.63672,5 1.78385,4.73958 1.09375,4.21875 0.364583,3.69792 0,3.02734 0,2.20703 0,1.90755 0.0911458,1.58854 0.273438,1.25 0.442708,0.950521 0.611979,0.716146 0.78125,0.546875 0.859375,0.442708 1.10677,0.195312 1.52344,-0.195312 0.716146,-0.768229 0.30599,-1.47786 0.292969,-2.32422 0.292969,-3.04036 0.611979,-3.67188 1.25,-4.21875 1.88802,-4.73958 2.7474,-5 3.82812,-5 c 0.85938,0 1.61459,0.19531 2.26563,0.58594 0.625,0.39062 0.9375,0.93099 0.9375,1.62109 -0.02604,0.70313 -0.44271,1.49089 -1.25,2.363282 M 2.12891,0.15625 c -0.8073,0.716146 -1.223962,1.39974 -1.250004,2.05078 0,0.66406 0.279944,1.21745 0.839844,1.66016 0.53385,0.44271 1.17839,0.66406 1.93359,0.66406 0.53386,0 0.95052,-0.16927 1.25,-0.50781 C 5.21484,3.71094 5.37109,3.32682 5.37109,2.87109 5.37109,2.3112 5.14323,1.90104 4.6875,1.64062 L 2.12891,0.15625"
         id="path144"
         inkscape:connector-curvature="0"
         style="fill-rule:nonzero" />
    </g>
    <g
       transform="matrix(4.16667,0,0,4.16667,204.725,263.944)"
       font-size="20"
       font-weight="400"
       font-style="normal"
       id="g146"
       style="font-style:normal;font-weight:400;font-size:20px;font-family:MScore;fill:none;stroke:#000000;stroke-width:1;stroke-linecap:square;stroke-linejoin:bevel;stroke-opacity:1" />
    <g
       transform="matrix(4.16667,0,0,4.16667,118.11,263.944)"
       font-size="20"
       font-weight="400"
       font-style="normal"
       id="g148"
       style="font-style:normal;font-weight:400;font-size:20px;font-family:MScore;fill:#000000;fill-opacity:1;stroke:none">
      <path
         vector-effect="none"
         d="M 47.1782,0.0095821 471.796,-6.25 l 0,2.5 -424.6178,6.25958 0,-2.4999979"
         id="path150"
         inkscape:connector-curvature="0"
         style="fill-rule:evenodd" />
      <path
         vector-effect="none"
         d="M 47.1782,3.75958 471.796,-2.5 l 0,2.5 -424.6178,6.25959 0,-2.50001"
         id="path152"
         inkscape:connector-curvature="0"
         style="fill-rule:evenodd" />
    </g>
  </g>
</svg>
